<svg width="25" height="24" viewBox="0 0 25 24" fill="none" xmlns="http://www.w3.org/2000/svg">
<path d="M23.42 13.43L13.42 23.43C13.2298 23.6121 13.0055 23.7548 12.76 23.85C12.2731 24.05 11.7269 24.05 11.24 23.85C10.9945 23.7548 10.7702 23.6121 10.58 23.43L0.580005 13.43C0.393528 13.2435 0.245606 13.0221 0.144686 12.7785C0.0437651 12.5348 -0.00817871 12.2737 -0.00817871 12.01C-0.00817871 11.4774 0.203397 10.9666 0.580005 10.59C0.956612 10.2134 1.4674 10.0018 2 10.0018C2.53261 10.0018 3.0434 10.2134 3.42 10.59L10 17.19V2.00997C10 1.47954 10.2107 0.970831 10.5858 0.595758C10.9609 0.220686 11.4696 0.00997353 12 0.00997353C12.5304 0.00997353 13.0391 0.220686 13.4142 0.595758C13.7893 0.970831 14 1.47954 14 2.00997V17.19L20.58 10.59C20.7659 10.4025 20.9871 10.2537 21.2309 10.1522C21.4746 10.0507 21.736 9.99838 22 9.99838C22.264 9.99838 22.5254 10.0507 22.7692 10.1522C23.0129 10.2537 23.2341 10.4025 23.42 10.59C23.6075 10.7759 23.7563 10.9971 23.8578 11.2408C23.9593 11.4845 24.0116 11.7459 24.0116 12.01C24.0116 12.274 23.9593 12.5354 23.8578 12.7791C23.7563 13.0228 23.6075 13.244 23.42 13.43Z" fill="url(#paint0_linear_22_57)"/>
<defs>
<linearGradient id="paint0_linear_22_57" x1="12.0017" y1="24" x2="12.0017" y2="0.00997353" gradientUnits="userSpaceOnUse">
<stop stop-color="#F2F2F2"/>
<stop offset="1" stop-color="#D45211"/>
</linearGradient>
</defs>
</svg>
