<?xml version="1.0" encoding="UTF-8" standalone="no"?>
<!-- Created with Inkscape (http://www.inkscape.org/) -->

<svg
   width="210mm"
   height="297mm"
   viewBox="0 0 210 297"
   version="1.1"
   id="svg1"
   xml:space="preserve"
   inkscape:export-filename="emoji_comemorando.svg"
   inkscape:export-xdpi="96"
   inkscape:export-ydpi="96"
   xmlns:inkscape="http://www.inkscape.org/namespaces/inkscape"
   xmlns:sodipodi="http://sodipodi.sourceforge.net/DTD/sodipodi-0.dtd"
   xmlns="http://www.w3.org/2000/svg"
   xmlns:svg="http://www.w3.org/2000/svg"><sodipodi:namedview
     id="namedview1"
     pagecolor="#505050"
     bordercolor="#eeeeee"
     borderopacity="1"
     inkscape:showpageshadow="0"
     inkscape:pageopacity="0"
     inkscape:pagecheckerboard="0"
     inkscape:deskcolor="#505050"
     inkscape:document-units="mm" /><defs
     id="defs1" /><g
     inkscape:label="Camada 1"
     inkscape:groupmode="layer"
     id="layer1"><path
       style="fill:#000000"
       d="m 24.062864,182.7297 c -6.100446,-20.87497 -8.510136,-34.28579 -9.270306,-51.5927 -1.780428,-40.535305 9.03598,-71.318585 30.99717,-88.217325 24.223525,-18.63958 59.930252,-22.25116 81.727972,-8.26643 7.0988,4.55436 15.02673,12.96852 15.02668,15.94828 -2e-5,1.1508 -1.87534,3.58867 -4.16738,5.41749 -8.25389,6.58579 -10.66778,27.55585 -5.6151,48.779665 3.05982,12.8528 11.19788,37.01416 14.19651,42.14853 2.20378,3.7734 10.43469,10.41569 13.00793,10.49731 1.82189,0.0578 16.41234,-59.092635 16.57456,-67.194075 0.1006,-5.02401 -0.43183,-7.38289 -2.07788,-9.20597 -1.21722,-1.34814 -1.85906,-3.02404 -1.42632,-3.72423 1.52415,-2.46613 4.34648,-1.22654 6.84361,3.00577 1.9575,3.31773 3.09395,4.13594 5.05938,3.64265 3.31347,-0.83163 4.60187,0.2009 6.35643,5.09408 1.92063,5.35631 -0.87047,9.64546 -6.31295,9.70129 l -3.66903,0.0376 -7.61535,30.062515 c -4.18845,16.53438 -8.54551,31.21121 -9.68237,32.61516 -2.01714,2.49107 -2.17204,2.50256 -6.42091,0.47641 -2.39465,-1.14193 -4.65051,-2.07623 -5.01302,-2.07623 -0.36251,0 3.42823,7.84955 8.42386,17.44345 4.99564,9.5939 9.08298,17.67774 9.08298,17.96408 0,0.28633 -1.21258,0.51986 -2.69462,0.51893 -2.23587,-0.001 -4.05248,-2.6009 -10.67074,-15.26946 -14.95114,-28.61922 -26.67095,-60.22349 -30.53179,-82.333655 -1.977,-11.32178 -1.63069,-25.98586 0.76231,-32.27993 0.70713,-1.85988 1.13587,-3.52073 0.95277,-3.69079 -0.1831,-0.17006 -4.26898,0.69606 -9.07974,1.92471 -28.142175,7.1874 -59.79709,7.50038 -61.125141,0.60437 -0.390679,-2.02864 0.04595,-2.13475 4.780893,-1.16191 9.92482,2.03915 30.572482,0.93305 46.446998,-2.48819 13.71191,-2.95515 25.21304,-7.27809 26.98314,-10.14216 2.14578,-3.47195 -12.50874,-14.30358 -23.61045,-17.45125 -8.88754,-2.51988 -25.822003,-2.52619 -35.519809,-0.0132 -29.777563,7.71614 -47.585955,27.80721 -54.693741,61.70438 -2.927383,13.960755 -2.908584,43.071415 0.0379,58.682635 1.815763,9.62039 8.097391,32.60605 10.882293,39.82036 0.636839,1.64974 0.17755,2.09581 -2.157917,2.09581 -2.743076,0 -3.255332,-0.98681 -6.788819,-13.07796 z m 31.080277,-7.25576 c -5.2517,-5.62196 -28.766397,-35.91777 -28.766397,-37.06198 0,-0.56687 0.769964,-1.32614 1.711031,-1.68726 1.687198,-0.64744 8.17171,6.16662 15.766719,16.56799 9.609574,13.16032 15.460747,19.81995 17.131227,19.49824 1.001365,-0.19284 6.016965,-6.54507 11.145778,-14.11605 5.128813,-7.57098 11.693838,-17.01008 14.588945,-20.97578 2.895106,-3.9657 5.95135,-9.50509 6.79165,-12.30977 1.39821,-4.66682 1.31149,-5.392 -1.02227,-8.54858 -2.172156,-2.938 -2.297986,-3.65841 -0.849036,-4.86093 1.354726,-1.12432 2.331956,-0.78084 4.799886,1.68709 1.70436,1.70436 4.108106,3.09883 5.341656,3.09883 4.34963,0 6.03155,1.40351 6.03155,5.03317 0,5.29906 -3.50772,10.5357 -7.05724,10.5357 -3.716396,0 -6.759356,3.5149 -20.152861,23.27846 -11.699412,17.26375 -16.976419,23.42812 -20.055618,23.42812 -1.139991,0 -3.57225,-1.60526 -5.40502,-3.56725 z M 75.370986,56.157105 c -1.358513,-1.63691 -1.25388,-2.17795 0.697078,-3.60453 1.972441,-1.44228 2.536929,-1.43711 4.010775,0.0367 1.977352,1.97735 1.067126,5.4938 -1.422059,5.4938 -0.928045,0 -2.406652,-0.8667 -3.285794,-1.926 z m 33.640494,-10.64885 c 0,-2.59265 0.48422,-3.09183 2.69461,-2.7779 1.76864,0.25118 2.69461,1.20578 2.69461,2.7779 0,1.57213 -0.92597,2.52672 -2.69461,2.77791 -2.21039,0.31392 -2.69461,-0.18526 -2.69461,-2.77791 z"
       id="path1" /></g></svg>
