<?xml version="1.0" encoding="UTF-8" standalone="no"?>
<!-- Created with Inkscape (http://www.inkscape.org/) -->

<svg
   width="210mm"
   height="297mm"
   viewBox="0 0 210 297"
   version="1.1"
   id="svg1"
   xml:space="preserve"
   xmlns:inkscape="http://www.inkscape.org/namespaces/inkscape"
   xmlns:sodipodi="http://sodipodi.sourceforge.net/DTD/sodipodi-0.dtd"
   xmlns="http://www.w3.org/2000/svg"
   xmlns:svg="http://www.w3.org/2000/svg"><sodipodi:namedview
     id="namedview1"
     pagecolor="#505050"
     bordercolor="#eeeeee"
     borderopacity="1"
     inkscape:showpageshadow="0"
     inkscape:pageopacity="0"
     inkscape:pagecheckerboard="0"
     inkscape:deskcolor="#505050"
     inkscape:document-units="mm" /><defs
     id="defs1" /><g
     inkscape:label="Camada 1"
     inkscape:groupmode="layer"
     id="layer1"><path
       style="fill:#000000;stroke-width:3.43914"
       d="m 5.938953,231.85966 c -0.01169,-11.84772 2.57941,-30.28241 6.043176,-42.99456 0.75001,-2.75258 1.9019,-7.66624 2.559755,-10.91925 2.520545,-12.46384 3.482458,-16.01192 5.057148,-18.65373 0.894935,-1.50139 3.288614,-6.65789 5.319293,-11.45885 5.962215,-14.09602 12.238433,-24.26204 18.767053,-30.39828 l 5.80873,-5.45962 -1.19779,-9.55437 c -0.65878,-5.254895 -1.48795,-12.769065 -1.8426,-16.698175 -0.59618,-6.6051 -0.84124,-7.25657 -3.24946,-8.63869 -1.55253,-0.89105 -3.18492,-3.0143 -4.04118,-5.25638 -0.79009,-2.06884 -2.24077,-4.48934 -3.223711,-5.37891 -0.982943,-0.88953 -1.787171,-2.1681 -1.787171,-2.84124 0,-1.6339 3.562562,-1.57385 4.193632,0.0708 0.80077,2.0868 3.1764,2.49519 5.53285,0.95119 1.20481,-0.78942 3.0921,-1.31055 4.19399,-1.15806 1.89862,0.26275 2.0174,-0.0949 2.27026,-6.83394 0.23012,-6.1327 0.48052,-7.07041 1.81988,-6.81499 1.33174,0.25381 1.62596,1.91567 2.06474,11.66087 0.43227,9.60055 0.27617,11.76508 -1.00551,13.94425 -1.20943,2.05633 -1.35337,3.44072 -0.70954,6.82455 0.44421,2.33473 1.15966,8.87562 1.58988,14.5353 0.43022,5.659725 1.01622,10.524375 1.30221,10.810375 0.286,0.28614 3.70828,-1.13701 7.60507,-3.16228 7.82407,-4.06633 23.66669,-9.886695 38.477942,-14.136265 14.40808,-4.13387 17.68206,-4.59248 33.21272,-4.65243 14.3555,-0.0554 16.02564,0.11625 23.20339,2.38635 4.25397,1.34536 8.75817,2.57378 10.00933,2.72981 l 2.27485,0.28373 -0.0206,-9.09936 c -0.0275,-12.75617 -1.05307,-32.00449 -1.76552,-33.15725 -0.32809,-0.53101 -1.37108,-0.96544 -2.3176,-0.96544 -2.47088,0 -3.607,-2.52787 -2.52766,-5.62406 0.76782,-2.20263 0.4777,-3.23279 -1.99638,-7.0883 -2.68459,-4.183569 -2.98025,-6.396343 -0.85466,-6.396343 0.48124,0 2.16108,1.824599 3.73301,4.054706 4.57267,6.487307 10.3088,6.592127 10.92843,0.199813 0.17815,-1.837392 0.77708,-2.889561 1.64498,-2.889561 1.13467,0 1.31364,1.381535 1.06104,8.189475 -0.16714,4.50416 -0.7813,9.21311 -1.36489,10.46427 -0.73959,1.58568 -0.97414,8.61744 -0.77412,23.21065 l 0.28683,20.9358 8.61414,4.50995 c 11.34175,5.937945 14.27932,8.499065 17.6863,15.419605 3.93262,7.98832 4.4068,12.32173 1.75571,16.04487 -3.23691,4.54581 -8.43255,6.30951 -21.60715,7.33464 -6.36492,0.49531 -13.00575,1.287 -14.75737,1.75936 -1.75162,0.47237 -5.1056,0.86113 -7.45329,0.86391 -2.34766,0.003 -4.48591,0.35685 -4.75161,0.78677 -0.26585,0.42996 0.5559,4.42232 1.82587,8.87191 1.26993,4.44958 2.83254,9.9328 3.47246,12.18489 0.63988,2.25211 1.77727,5.32316 2.52752,6.82455 1.82649,3.65531 4.00787,12.13423 5.26728,20.47358 0.56684,3.75351 1.43587,8.13201 1.93121,9.73003 1.6795,5.41812 4.59627,23.44407 5.09883,31.51087 l 0.50012,8.02815 -3.07177,-0.29371 -3.07177,-0.2937 -1.44495,-11.37421 c -1.49754,-11.78826 -2.34693,-16.62079 -5.35779,-30.48291 -0.97833,-4.50421 -2.4389,-11.26049 -3.24576,-15.014 -0.80682,-3.75347 -2.42668,-9.28136 -3.5997,-12.28414 -1.17302,-3.00281 -3.03119,-8.7354 -4.12924,-12.73914 -1.09804,-4.0037 -2.61288,-8.82761 -3.36626,-10.71975 l -1.36977,-3.44023 -6.48707,0.48994 c -25.31812,1.91212 -37.41496,2.66746 -43.339522,2.70618 -6.24351,0.0409 -6.84763,-0.11727 -7.0959,-1.8549 -0.14926,-1.0447 0.28064,-2.35752 0.95502,-2.91735 0.67455,-0.55978 7.55296,-1.45169 15.285372,-1.982 20.06703,-1.37621 50.39817,-4.44546 77.74174,-7.86685 11.52977,-1.44265 14.11686,-2.60243 14.11686,-6.32846 0,-3.22986 -3.17419,-9.70936 -6.03758,-12.32462 -3.60995,-3.29706 -14.50981,-9.33457 -19.44067,-10.768285 -2.25208,-0.65484 -5.73263,-1.72964 -7.73448,-2.38841 -15.00205,-4.93701 -20.80405,-5.99953 -30.46011,-5.57807 -15.65996,0.6835 -32.52595,4.08078 -45.519692,9.168915 -1.75162,0.6859 -5.43687,1.9765 -8.18943,2.86803 -7.3104,2.36774 -21.38854,9.39242 -23.65214,11.80191 -1.87205,1.9927 -1.90994,2.40378 -0.89304,9.68821 0.58407,4.18399 2.26664,14.36352 3.73905,22.62122 3.25163,18.23616 3.56777,27.1788 1.14152,32.29059 -0.94697,1.99518 -2.48015,3.77363 -3.40706,3.95212 -1.51635,0.29198 -1.6132,-0.0715 -0.9661,-3.62757 1.11099,-6.10515 0.66544,-14.1932 -1.89774,-34.44954 -2.79374,-22.07835 -3.3579,-25.00877 -4.81466,-25.00877 -1.42541,0 -8.35351,6.71773 -9.37803,9.09325 -0.43314,1.00429 -1.8058,3.4639 -3.05037,5.46575 -2.449853,3.94056 -5.958067,10.91911 -5.958067,11.85181 0,0.31777 -1.777706,4.33241 -3.950458,8.92183 -4.514075,9.53487 -5.46806,12.38154 -6.913122,20.62852 -0.570003,3.25304 -1.592911,7.96198 -2.273128,10.46429 -4.173847,15.35443 -5.803316,24.92352 -6.546562,38.44489 l -0.612716,11.14672 H 8.989541 5.943434 Z M 128.15736,121.86099 c -0.60797,-1.58438 0.57661,-4.10544 2.18014,-4.63995 0.53172,-0.17711 1.62771,0.33876 2.43553,1.14644 1.11386,1.11387 1.24156,1.89314 0.52856,3.22539 -1.14692,2.14303 -4.36048,2.31052 -5.14423,0.26825 z m 44.34166,-6.20217 c -1.51972,-1.83114 -0.82326,-4.50455 1.27891,-4.9094 2.40482,-0.46312 4.35103,2.32444 3.16721,4.53642 -1.08612,2.0294 -2.94218,2.18509 -4.44612,0.37298 z"
       id="path1" /></g></svg>
