<svg width="32" height="32" viewBox="0 0 32 32" fill="none" xmlns="http://www.w3.org/2000/svg">
<g clip-path="url(#clip0_22_106)">
<path d="M24.6528 16C24.6528 11.5744 26.696 9.08802 28.296 9.08802H30.4C29.3312 7.39362 28.4464 6.40002 24.5472 6.40002H8.5344C2.56 6.40002 0 11.9056 0 16C0 20.0944 2.56 25.6 8.5344 25.6H24.5472C28.448 25.6 29.3312 24.6064 30.4 22.912H28.296C26.696 22.912 24.6528 20.4256 24.6528 16ZM20.3008 18.872C20.0384 19.272 19.2192 18.8976 19.2192 18.8976L14.488 16.7568C14.488 16.7568 14.0656 17.8288 13.7408 18.5824C13.4128 19.336 13.1632 20.1888 11.8064 19.2352C10.448 18.2784 6.0768 14.0352 6.0768 14.0352C6.0768 14.0352 5.5248 13.5808 5.8 13.1536C6.0608 12.7504 6.8816 13.128 6.8816 13.128L11.6112 15.2656C11.6112 15.2656 12.0352 14.1968 12.36 13.4432C12.688 12.6912 12.9376 11.8336 14.2944 12.7904C15.6528 13.744 20.0224 17.9904 20.0224 17.9904C20.0224 17.9904 20.5744 18.4432 20.3008 18.872ZM30.1984 12.6848H29C28.1056 12.6848 27.232 13.8912 27.232 15.8512C27.232 17.8144 28.1072 19.0192 29 19.0192H30.1984C31.0944 19.0192 32 17.8128 32 15.8512C32 13.8912 31.0944 12.6848 30.1984 12.6848Z" fill="url(#paint0_linear_22_106)"/>
</g>
<defs>
<linearGradient id="paint0_linear_22_106" x1="16" y1="6.40002" x2="16" y2="25.6" gradientUnits="userSpaceOnUse">
<stop stop-color="#F2F2F2"/>
<stop offset="1" stop-color="#D45211"/>
</linearGradient>
<clipPath id="clip0_22_106">
<rect width="32" height="32" fill="white"/>
</clipPath>
</defs>
</svg>
