<svg width="32" height="32" viewBox="0 0 32 32" fill="none" xmlns="http://www.w3.org/2000/svg">
<path d="M16.6667 17.3334L13.3334 22.6667H18.6667L15.3334 28" stroke="url(#paint0_linear_22_108)" stroke-width="2" stroke-linecap="round" stroke-linejoin="round"/>
<path d="M5.33335 18L4.68669 18.1614C4.10978 18.3056 3.59763 18.6385 3.23163 19.1071C2.86563 19.5758 2.66678 20.1534 2.66669 20.748V23.2507C2.66678 23.8454 2.86563 24.4229 3.23163 24.8916C3.59763 25.3603 4.10978 25.6932 4.68669 25.8374L7.00669 26.4187C7.12479 26.4481 7.24806 26.4502 7.36709 26.4248C7.48612 26.3994 7.59778 26.3471 7.69357 26.272C7.78936 26.1969 7.86676 26.101 7.91986 25.9915C7.97297 25.8819 8.00038 25.7618 8.00002 25.64V18.356C8.00003 18.2344 7.9723 18.1144 7.91894 18.0051C7.86559 17.8958 7.78801 17.8001 7.69211 17.7252C7.59621 17.6504 7.48451 17.5985 7.36551 17.5733C7.2465 17.5481 7.12333 17.5504 7.00535 17.58L5.33335 18ZM5.33335 18V17.3334C5.33335 10.7067 10.1094 5.33337 16 5.33337C21.8907 5.33337 26.6667 10.7067 26.6667 17.3334V18M26.6667 18L27.3134 18.1614C27.8903 18.3056 28.4024 18.6385 28.7684 19.1071C29.1344 19.5758 29.3333 20.1534 29.3334 20.748V23.2507C29.3333 23.8454 29.1344 24.4229 28.7684 24.8916C28.4024 25.3603 27.8903 25.6932 27.3134 25.8374L24.9934 26.4187C24.8752 26.4481 24.752 26.4502 24.633 26.4248C24.5139 26.3994 24.4023 26.3471 24.3065 26.272C24.2107 26.1969 24.1333 26.101 24.0802 25.9915C24.0271 25.8819 23.9997 25.7618 24 25.64V18.356C24.0001 18.2346 24.0278 18.1147 24.0811 18.0055C24.1343 17.8963 24.2118 17.8007 24.3075 17.7259C24.4033 17.6511 24.5148 17.5991 24.6336 17.5738C24.7524 17.5486 24.8755 17.5507 24.9934 17.58L26.6667 18Z" stroke="url(#paint1_linear_22_108)" stroke-width="2" stroke-linecap="round" stroke-linejoin="round"/>
<defs>
<linearGradient id="paint0_linear_22_108" x1="16" y1="17.3334" x2="16" y2="28" gradientUnits="userSpaceOnUse">
<stop stop-color="#F2F2F2"/>
<stop offset="1" stop-color="#D45211"/>
</linearGradient>
<linearGradient id="paint1_linear_22_108" x1="16" y1="5.33337" x2="16" y2="26.4424" gradientUnits="userSpaceOnUse">
<stop stop-color="#F2F2F2"/>
<stop offset="1" stop-color="#D45211"/>
</linearGradient>
</defs>
</svg>
