<svg width="80" height="80" viewBox="0 0 80 80" fill="none" xmlns="http://www.w3.org/2000/svg">
<g clip-path="url(#clip0_22_44)">
<path fill-rule="evenodd" clip-rule="evenodd" d="M40 11.6667C29.0967 11.6667 20.2567 19.875 20.2567 30H16.6667C16.6667 18.0333 27.1133 8.33333 40 8.33333C52.8867 8.33333 63.3333 18.0333 63.3333 30C63.3333 37.5017 59.225 44.1117 52.9933 48C48.74 50.65 45.385 54.1783 45.385 58.185V58.3333C45.385 65.6967 38.955 71.6667 31.025 71.6667C23.095 71.6667 16.6667 65.6967 16.6667 58.3333V55H20.2567V58.3333C20.2567 63.8567 25.0783 68.3333 31.025 68.3333C36.9717 68.3333 41.795 63.8567 41.795 58.3333V58.185C41.795 52.4233 46.5117 48.025 50.9917 45.2317C56.275 41.9383 59.7417 36.345 59.7417 30C59.7417 19.875 50.9033 11.6667 40 11.6667ZM31.815 28.3667C32.4533 25.525 35.0867 23.3333 38.3333 23.3333C42.0733 23.3333 45 26.2417 45 29.7H48.3333C48.3333 24.2867 43.7983 20 38.3333 20C32.8683 20 28.3333 24.2867 28.3333 29.7C28.3333 32.4333 29.3983 34.6183 31.6983 35.8817C32.9467 36.5667 33.7817 37.1483 34.2917 37.6167C34.415 37.7311 34.5111 37.8283 34.58 37.9083C34.2733 38.0533 33.7717 38.2183 33.02 38.3633L33.6467 41.6367C34.7667 41.4233 35.8067 41.1033 36.595 40.5983C37.4183 40.07 38.205 39.1567 38.0983 37.8483C38.0067 36.7383 37.2817 35.8383 36.545 35.1617C35.7583 34.4383 34.6633 33.7067 33.3017 32.9583C32.7702 32.6841 32.3378 32.2505 32.065 31.7183C33.22 31.795 34.6433 31.9717 36.045 32.3567C37.6167 32.7867 39.04 33.4433 40.05 34.395C40.9983 35.2867 41.65 36.495 41.6667 38.2733C41.45 40.5417 40.9133 42.0067 40.3 42.9567C39.6933 43.8933 38.965 44.4067 38.2083 44.705C37.4217 45.015 36.5533 45.11 35.68 45.11C35.2467 45.11 34.83 45.0867 34.43 45.06L34.2767 45.0517C33.9428 45.026 33.6082 45.0105 33.2733 45.005C31.69 45.005 30.89 46.2317 30.5183 46.9517C30.2617 47.45 30.01 48.13 29.7917 48.715C29.7 48.9617 29.615 49.1917 29.5383 49.3833C29.2217 50.175 28.915 50.75 28.5467 51.1317C28.2383 51.4483 27.855 51.6667 27.185 51.6667C26.3 51.6667 25.84 51.4667 25.6067 51.3067C25.3861 51.1544 25.2211 50.9344 25.1367 50.68C25.0101 50.2859 24.9714 49.8689 25.0233 49.4583L25.0217 49.4633V49.4667C25.0217 49.4667 25.0217 49.47 23.38 49.17L21.7417 48.8717V48.875L21.74 48.8783L21.7383 48.8867L21.735 48.91C21.7197 48.9984 21.7081 49.0873 21.7 49.1767C21.6833 49.3383 21.6667 49.56 21.6667 49.82C21.6667 50.3333 21.7267 51.0617 22.0067 51.8233C22.29 52.6033 22.8117 53.435 23.7233 54.0583C24.6317 54.68 25.79 55 27.185 55C28.7983 55 30.0317 54.3867 30.9383 53.4533C31.7817 52.585 32.2833 51.4967 32.6333 50.62C32.7933 50.2217 32.9167 49.8883 33.0217 49.5983C33.1883 49.1483 33.315 48.8033 33.4833 48.475C33.5089 48.425 33.5322 48.3822 33.5533 48.3467L34.0533 48.3767L34.2167 48.3883C34.6317 48.4133 35.1333 48.4433 35.68 48.4433C36.7633 48.4433 38.0983 48.33 39.43 47.8067C40.7883 47.2733 42.0883 46.3283 43.0983 44.7667C44.0917 43.23 44.7483 41.1783 44.9933 38.4967C44.9978 38.4467 45 38.3967 45 38.3467C45 35.5833 43.9433 33.4833 42.3367 31.9683C40.7783 30.5 38.7767 29.6467 36.925 29.14C35.0583 28.63 33.2167 28.4367 31.8617 28.3683L31.815 28.3667Z" fill="url(#paint0_linear_22_44)"/>
</g>
<defs>
<linearGradient id="paint0_linear_22_44" x1="40" y1="8.33333" x2="40" y2="71.6667" gradientUnits="userSpaceOnUse">
<stop stop-color="#F2F2F2"/>
<stop offset="1" stop-color="#D45211"/>
</linearGradient>
<clipPath id="clip0_22_44">
<rect width="80" height="80" fill="white"/>
</clipPath>
</defs>
</svg>
