<svg width="32" height="32" viewBox="0 0 32 32" fill="none" xmlns="http://www.w3.org/2000/svg">
<path d="M8.22666 24.0001C8.50213 23.2193 9.01298 22.5433 9.68879 22.0651C10.3646 21.5869 11.1721 21.3301 12 21.3301C12.8279 21.3301 13.6354 21.5869 14.3112 22.0651C14.987 22.5433 15.4979 23.2193 15.7733 24.0001H29.3333V26.6667H15.7733C15.4979 27.4474 14.987 28.1235 14.3112 28.6017C13.6354 29.0799 12.8279 29.3367 12 29.3367C11.1721 29.3367 10.3646 29.0799 9.68879 28.6017C9.01298 28.1235 8.50213 27.4474 8.22666 26.6667H2.66666V24.0001H8.22666ZM16.2267 14.6667C16.5021 13.886 17.013 13.21 17.6888 12.7318C18.3646 12.2536 19.1721 11.9968 20 11.9968C20.8279 11.9968 21.6354 12.2536 22.3112 12.7318C22.987 13.21 23.4979 13.886 23.7733 14.6667H29.3333V17.3334H23.7733C23.4979 18.1141 22.987 18.7901 22.3112 19.2683C21.6354 19.7465 20.8279 20.0033 20 20.0033C19.1721 20.0033 18.3646 19.7465 17.6888 19.2683C17.013 18.7901 16.5021 18.1141 16.2267 17.3334H2.66666V14.6667H16.2267ZM8.22666 5.33339C8.50213 4.55268 9.01298 3.87663 9.68879 3.39844C10.3646 2.92025 11.1721 2.66345 12 2.66345C12.8279 2.66345 13.6354 2.92025 14.3112 3.39844C14.987 3.87663 15.4979 4.55268 15.7733 5.33339H29.3333V8.00005H15.7733C15.4979 8.78076 14.987 9.45681 14.3112 9.935C13.6354 10.4132 12.8279 10.67 12 10.67C11.1721 10.67 10.3646 10.4132 9.68879 9.935C9.01298 9.45681 8.50213 8.78076 8.22666 8.00005H2.66666V5.33339H8.22666ZM12 8.00005C12.3536 8.00005 12.6927 7.85958 12.9428 7.60953C13.1928 7.35948 13.3333 7.02034 13.3333 6.66672C13.3333 6.3131 13.1928 5.97396 12.9428 5.72391C12.6927 5.47386 12.3536 5.33339 12 5.33339C11.6464 5.33339 11.3072 5.47386 11.0572 5.72391C10.8071 5.97396 10.6667 6.3131 10.6667 6.66672C10.6667 7.02034 10.8071 7.35948 11.0572 7.60953C11.3072 7.85958 11.6464 8.00005 12 8.00005ZM20 17.3334C20.3536 17.3334 20.6928 17.1929 20.9428 16.9429C21.1928 16.6928 21.3333 16.3537 21.3333 16.0001C21.3333 15.6464 21.1928 15.3073 20.9428 15.0572C20.6928 14.8072 20.3536 14.6667 20 14.6667C19.6464 14.6667 19.3072 14.8072 19.0572 15.0572C18.8071 15.3073 18.6667 15.6464 18.6667 16.0001C18.6667 16.3537 18.8071 16.6928 19.0572 16.9429C19.3072 17.1929 19.6464 17.3334 20 17.3334ZM12 26.6667C12.3536 26.6667 12.6927 26.5262 12.9428 26.2762C13.1928 26.0261 13.3333 25.687 13.3333 25.3334C13.3333 24.9798 13.1928 24.6406 12.9428 24.3906C12.6927 24.1405 12.3536 24.0001 12 24.0001C11.6464 24.0001 11.3072 24.1405 11.0572 24.3906C10.8071 24.6406 10.6667 24.9798 10.6667 25.3334C10.6667 25.687 10.8071 26.0261 11.0572 26.2762C11.3072 26.5262 11.6464 26.6667 12 26.6667Z" fill="url(#paint0_linear_22_117)"/>
<defs>
<linearGradient id="paint0_linear_22_117" x1="16" y1="2.66345" x2="16" y2="29.3367" gradientUnits="userSpaceOnUse">
<stop stop-color="#F2F2F2"/>
<stop offset="1" stop-color="#D45211"/>
</linearGradient>
</defs>
</svg>
