<svg width="32" height="32" viewBox="0 0 32 32" fill="none" xmlns="http://www.w3.org/2000/svg">
<path d="M27.6747 7.12667C27.5493 6.98241 27.3945 6.86671 27.2206 6.78736C27.0467 6.70801 26.8578 6.66686 26.6667 6.66667H8.24137L7.98137 5.11467C7.92961 4.80333 7.76909 4.52045 7.52837 4.31635C7.28764 4.11224 6.98232 4.00015 6.66671 4H3.66671C3.31309 4 2.97395 4.14048 2.7239 4.39052C2.47385 4.64057 2.33337 4.97971 2.33337 5.33333C2.33337 5.68696 2.47385 6.02609 2.7239 6.27614C2.97395 6.52619 3.31309 6.66667 3.66671 6.66667H5.53737L8.01737 21.552L8.07737 21.7173L8.14937 21.9187L8.30937 22.1573L8.43604 22.3067L8.69337 22.48L8.84271 22.5667C8.99777 22.6315 9.16398 22.6654 9.33204 22.6667H24C24.3537 22.6667 24.6928 22.5262 24.9429 22.2761C25.1929 22.0261 25.3334 21.687 25.3334 21.3333C25.3334 20.9797 25.1929 20.6406 24.9429 20.3905C24.6928 20.1405 24.3537 20 24 20H10.4627L10.2414 18.6667H25.3334C25.6542 18.6667 25.9643 18.5511 26.2068 18.3409C26.4493 18.1308 26.6078 17.8403 26.6534 17.5227L27.9867 8.18933C28.0137 8.0002 27.9998 7.80747 27.946 7.62415C27.8922 7.44083 27.7997 7.27119 27.6747 7.12667ZM25.1294 9.33333L24.7494 12H20V9.33333H25.1294ZM18.6667 9.33333V12H14.6667V9.33333H18.6667ZM18.6667 13.3333V16H14.6667V13.3333H18.6667ZM13.3334 9.33333V12H9.33337L9.13604 12.04L8.68537 9.33333H13.3334ZM9.35204 13.3333H13.3334V16H9.79604L9.35204 13.3333ZM20 16V13.3333H24.5574L24.1774 16H20Z" fill="url(#paint0_linear_20_31)"/>
<path d="M11.3334 28C12.4379 28 13.3334 27.1046 13.3334 26C13.3334 24.8954 12.4379 24 11.3334 24C10.2288 24 9.33337 24.8954 9.33337 26C9.33337 27.1046 10.2288 28 11.3334 28Z" fill="url(#paint1_linear_20_31)"/>
<path d="M23.3334 28C24.4379 28 25.3334 27.1046 25.3334 26C25.3334 24.8954 24.4379 24 23.3334 24C22.2288 24 21.3334 24.8954 21.3334 26C21.3334 27.1046 22.2288 28 23.3334 28Z" fill="url(#paint2_linear_20_31)"/>
<defs>
<linearGradient id="paint0_linear_20_31" x1="15.1667" y1="4" x2="15.1667" y2="22.6667" gradientUnits="userSpaceOnUse">
<stop stop-color="#F2F2F2"/>
<stop offset="1" stop-color="#D45211"/>
</linearGradient>
<linearGradient id="paint1_linear_20_31" x1="11.3334" y1="24" x2="11.3334" y2="28" gradientUnits="userSpaceOnUse">
<stop stop-color="#F2F2F2"/>
<stop offset="1" stop-color="#D45211"/>
</linearGradient>
<linearGradient id="paint2_linear_20_31" x1="23.3334" y1="24" x2="23.3334" y2="28" gradientUnits="userSpaceOnUse">
<stop stop-color="#F2F2F2"/>
<stop offset="1" stop-color="#D45211"/>
</linearGradient>
</defs>
</svg>
